<?xml version="1.0" standalone="no"?>
<!DOCTYPE svg PUBLIC "-//W3C//DTD SVG 20010904//EN"
 "http://www.w3.org/TR/2001/REC-SVG-20010904/DTD/svg10.dtd">
<svg version="1.0" xmlns="http://www.w3.org/2000/svg"
 width="300.000000pt" height="300.000000pt" viewBox="0 0 300.000000 300.000000"
 preserveAspectRatio="xMidYMid meet">
<metadata>
Created by potrace 1.14, written by Peter Selinger 2001-2017
</metadata>
<g transform="translate(0.000000,300.000000) scale(0.100000,-0.100000)"
fill="#000000" stroke="none">
<path d="M1160 2990 c-9 -6 -10 -10 -3 -10 6 0 15 5 18 10 8 12 4 12 -15 0z"/>
<path d="M1181 2979 c-10 -17 -10 -24 1 -37 12 -15 11 -16 -4 -4 -19 15 -42 7
-31 -11 4 -7 -1 -6 -11 2 -13 11 -20 11 -28 3 -7 -7 -17 -12 -22 -12 -6 0 2 8
17 19 23 15 25 19 12 25 -11 4 -14 2 -9 -6 5 -8 2 -9 -10 -5 -11 5 -15 3 -10
-5 5 -8 2 -9 -10 -5 -9 4 -15 3 -12 -1 3 -4 -4 -14 -16 -21 -11 -7 -17 -8 -14
-3 3 5 -3 12 -15 15 -17 5 -18 3 -7 -11 10 -12 10 -14 0 -8 -7 4 -15 1 -18 -8
-3 -9 -10 -16 -16 -16 -5 0 -7 4 -4 9 3 5 -3 11 -15 14 -17 5 -18 3 -7 -11 11
-13 11 -15 -4 -10 -11 5 -18 0 -21 -13 -5 -17 -9 -19 -26 -9 -15 8 -21 8 -21
0 0 -6 -4 -8 -10 -5 -5 3 -10 1 -10 -6 0 -6 -8 -9 -19 -6 -12 3 -18 -1 -17
-12 0 -9 -6 -17 -14 -17 -8 -1 -18 -3 -22 -4 -5 -1 -11 -3 -15 -4 -5 -1 -12
-4 -18 -7 -5 -4 -18 -5 -28 -4 -13 3 -16 -2 -13 -22 4 -19 2 -22 -8 -14 -7 6
-16 7 -20 3 -4 -4 -13 -7 -19 -7 -7 0 -12 -8 -12 -17 0 -10 -6 -23 -13 -30 -9
-9 -12 -9 -12 0 0 7 5 12 11 12 5 0 7 5 3 12 -5 8 -11 5 -17 -10 -6 -12 -14
-22 -19 -22 -5 0 -6 5 -2 12 5 7 3 8 -5 4 -9 -6 -8 -13 5 -27 15 -17 15 -19 2
-14 -11 4 -18 -1 -23 -15 -4 -12 -9 -19 -12 -17 -2 3 0 14 6 24 7 15 7 20 -4
20 -8 0 -13 -5 -12 -11 1 -6 -3 -10 -9 -9 -6 1 -10 -9 -8 -23 1 -13 -2 -22 -6
-19 -5 3 -11 1 -15 -5 -4 -6 -10 -8 -15 -5 -15 9 -41 -7 -35 -22 3 -11 1 -13
-10 -9 -10 4 -15 -1 -15 -16 0 -18 -2 -19 -17 -7 -15 13 -15 12 -4 -9 12 -22
11 -23 -8 -13 -22 12 -29 6 -26 -26 1 -12 -3 -21 -9 -20 -6 1 -11 -8 -10 -21
l1 -22 -26 22 c-14 13 -20 16 -14 8 14 -15 18 -34 6 -27 -5 3 -17 -5 -28 -16
l-20 -20 20 11 c17 9 21 7 21 -8 0 -11 -5 -16 -15 -12 -9 3 -12 1 -7 -6 4 -7
2 -10 -7 -6 -8 3 -20 -2 -27 -10 -7 -9 -16 -13 -21 -10 -5 3 -9 0 -9 -5 0 -16
11 -13 32 6 17 15 18 15 13 1 -4 -9 -13 -19 -21 -22 -9 -4 -12 -11 -8 -18 5
-8 0 -7 -11 2 -12 10 -16 10 -11 2 4 -7 2 -20 -5 -28 -6 -8 -9 -17 -6 -21 4
-3 9 2 13 11 3 9 11 16 17 16 5 0 2 -9 -8 -20 -9 -10 -20 -18 -24 -17 -3 1 -8
-2 -9 -8 -2 -5 -8 -15 -14 -22 -5 -7 -6 -18 -2 -25 4 -7 4 -10 0 -6 -11 9 -36
-14 -28 -26 3 -5 -3 -6 -14 -2 -10 4 -15 4 -11 0 4 -4 -1 -13 -11 -21 -14 -12
-14 -14 -1 -10 9 3 16 -1 16 -9 0 -7 -5 -10 -10 -7 -7 4 -8 -1 -3 -12 5 -14 4
-16 -7 -6 -12 9 -13 6 -9 -15 4 -20 2 -25 -8 -19 -8 5 -11 4 -6 -3 3 -6 2 -13
-4 -17 -6 -4 -8 -11 -5 -16 4 -5 8 -18 10 -29 3 -17 1 -18 -14 -11 -13 7 -18
6 -18 -4 0 -8 4 -12 8 -10 4 3 6 -3 5 -12 -2 -10 -14 -24 -27 -30 -22 -12 -13
-19 16 -13 5 1 6 -2 2 -7 -5 -4 -13 -9 -18 -9 -5 -1 -12 -2 -16 -3 -4 0 2 -8
13 -17 10 -8 13 -13 6 -9 -6 3 -12 1 -12 -6 0 -8 -5 -8 -17 2 -17 13 -17 12
-2 -6 25 -31 34 -49 21 -41 -7 4 -12 3 -12 -3 0 -6 -8 -8 -18 -5 -14 5 -14 4
-2 -4 8 -6 18 -8 22 -6 4 3 8 0 8 -5 0 -14 -33 -14 -46 -1 -7 7 -10 2 -10 -14
0 -21 3 -23 19 -14 10 5 21 7 25 4 3 -3 0 -6 -7 -6 -7 0 -9 -5 -6 -10 4 -6 3
-10 -2 -9 -28 5 -30 -7 -32 -217 -2 -167 1 -214 10 -208 9 5 9 3 3 -7 -5 -8
-9 -55 -9 -106 0 -87 1 -91 18 -76 9 9 17 21 16 27 0 6 -3 6 -6 -2 -2 -6 -9
-9 -15 -6 -5 3 0 13 12 21 12 8 24 12 27 9 4 -3 2 -6 -3 -6 -5 0 -10 -11 -10
-24 -1 -19 2 -23 15 -19 14 4 14 3 1 -6 -13 -10 -13 -12 0 -21 9 -6 10 -10 3
-10 -7 0 -17 8 -22 18 -10 16 -10 16 -11 0 0 -10 5 -18 11 -18 5 0 7 -4 4 -10
-4 -6 1 -7 11 -3 13 5 15 3 8 -8 -14 -23 -10 -43 11 -56 11 -7 15 -12 8 -13
-7 0 -11 -13 -10 -34 1 -19 7 -34 12 -33 6 1 9 -7 7 -18 -4 -20 -4 -20 11 0 9
11 19 17 23 12 4 -4 2 -7 -4 -7 -20 0 -13 -16 10 -27 19 -8 20 -10 4 -16 -10
-4 -15 -3 -11 3 3 6 1 10 -4 10 -6 0 -9 -8 -7 -17 6 -35 18 -53 30 -46 6 4 6
0 -2 -9 -9 -11 -10 -18 -2 -23 6 -3 8 -10 5 -15 -3 -5 0 -12 6 -16 8 -4 9 -3
5 4 -4 7 -4 12 1 12 15 -1 62 -87 59 -107 -3 -12 1 -20 10 -20 9 0 11 4 4 12
-7 8 -5 12 3 12 14 0 15 -2 19 -47 2 -14 9 -29 16 -33 7 -5 9 -14 5 -20 -4 -7
6 -3 22 7 l30 19 -18 -20 c-13 -15 -15 -23 -7 -28 9 -6 9 -10 -1 -17 -11 -8
-11 -9 1 -5 9 3 24 -1 35 -9 10 -8 16 -14 12 -14 -4 0 1 -9 12 -21 11 -12 17
-29 14 -38 -4 -13 -3 -14 5 -1 8 10 8 18 0 27 -8 10 -7 12 5 7 9 -3 19 -14 22
-25 4 -11 11 -16 17 -13 6 4 8 2 5 -4 -10 -15 3 -43 16 -35 6 4 8 0 4 -11 -4
-10 -3 -15 3 -11 6 3 13 -1 16 -9 3 -9 10 -13 15 -10 5 3 9 0 9 -6 0 -6 5 -8
10 -5 6 3 10 -1 10 -10 0 -13 -4 -14 -23 -4 -16 8 -19 8 -11 0 13 -14 57 -24
49 -11 -3 6 1 7 9 4 9 -3 17 -11 17 -18 1 -6 2 -18 3 -26 0 -8 7 -15 14 -15 7
0 17 -7 22 -15 5 -8 10 -10 10 -4 0 16 -25 35 -35 26 -5 -4 -5 -1 -1 6 8 13
18 9 55 -26 12 -12 12 -15 0 -23 -9 -5 -10 -9 -2 -9 6 0 19 -7 27 -16 9 -8 16
-11 16 -5 0 6 6 10 13 9 15 -4 43 -40 39 -51 -1 -5 2 -6 7 -3 5 4 14 -2 20
-11 8 -14 10 -15 11 -3 0 13 2 13 11 0 9 -13 10 -12 5 2 -3 10 0 20 6 24 7 4
8 3 4 -4 -4 -7 -2 -12 4 -12 6 0 8 -4 5 -10 -3 -5 3 -10 15 -10 12 0 18 -4 15
-10 -4 -6 -1 -9 7 -8 7 2 13 -5 13 -14 0 -9 4 -20 9 -25 5 -4 6 -3 3 3 -4 7 1
20 11 31 9 10 13 14 9 7 -10 -16 19 -45 39 -37 12 4 12 8 2 22 -12 14 -11 15
5 2 13 -10 14 -17 7 -26 -8 -10 -8 -15 1 -21 8 -4 9 -3 5 4 -12 19 13 14 36
-8 12 -11 28 -20 35 -20 7 0 13 -5 13 -11 0 -6 7 -3 16 5 8 9 20 14 25 11 5
-4 9 -1 9 6 0 7 2 10 5 7 3 -3 2 -13 -1 -22 -5 -12 -9 -14 -14 -6 -5 8 -9 7
-13 -3 -4 -12 0 -14 19 -11 17 3 23 1 19 -6 -5 -8 -1 -9 14 -1 12 6 30 16 41
21 12 6 20 6 20 1 0 -5 -6 -12 -12 -15 -7 -4 3 -4 22 -1 21 3 30 2 22 -4 -10
-6 -8 -10 8 -14 15 -4 20 -2 17 7 -6 14 29 16 51 3 7 -5 12 -3 12 5 1 7 7 2
15 -12 14 -27 23 -29 35 -10 5 8 9 5 12 -7 3 -12 0 -20 -8 -20 -8 0 -14 4 -14
9 0 5 -4 7 -9 3 -6 -3 -14 3 -20 12 -6 10 -10 14 -10 8 0 -26 27 -40 77 -42
28 0 52 3 52 8 0 4 -8 6 -17 3 -15 -5 -15 -3 2 11 11 9 19 19 18 23 -1 4 0 8
2 10 1 1 2 -5 2 -15 0 -10 1 -22 2 -28 1 -13 81 -16 81 -3 0 5 -4 7 -9 3 -15
-9 -25 15 -12 28 9 9 10 7 5 -7 -5 -14 -4 -17 4 -12 7 4 15 1 18 -7 3 -8 18
-13 40 -13 26 1 33 5 29 16 -4 8 -3 11 1 7 4 -4 13 -2 19 3 14 12 45 3 45 -13
0 -7 -4 -7 -12 1 -16 16 -25 15 -31 -1 -4 -11 10 -14 68 -12 75 2 100 9 89 26
-3 6 5 8 20 5 23 -4 24 -3 13 14 -10 17 -13 17 -27 5 -9 -8 -21 -12 -25 -8 -5
5 -3 -1 5 -11 13 -17 13 -19 0 -14 -17 5 -21 28 -5 29 6 0 17 7 27 15 11 11
18 12 23 4 3 -5 11 -7 17 -4 7 5 8 2 3 -6 -6 -10 -4 -12 7 -7 9 3 21 0 27 -6
9 -9 11 -8 6 4 -4 10 -2 20 4 24 6 3 11 1 11 -4 0 -6 5 -11 11 -11 5 0 7 4 4
10 -3 6 1 7 9 4 9 -3 13 -11 9 -17 -3 -6 4 -3 18 6 28 20 43 22 33 5 -4 -7 2
-5 13 5 11 9 22 15 25 12 3 -3 3 7 1 22 -4 28 -4 28 9 5 8 -12 17 -19 21 -16
10 10 9 26 -1 20 -5 -3 -9 1 -9 9 0 12 4 12 20 -2 11 -10 17 -13 14 -6 -10 16
14 22 37 11 14 -8 17 -7 11 3 -6 9 -4 11 7 6 12 -4 15 0 13 19 l-2 25 19 -21
c24 -26 27 -25 20 3 -5 20 -4 21 11 8 15 -12 21 -9 19 11 -1 3 5 9 14 12 8 3
12 2 9 -3 -3 -5 -1 -12 4 -15 5 -4 8 5 7 18 -2 17 1 23 10 19 8 -3 11 -10 8
-17 -3 -6 1 -3 9 6 8 10 16 15 20 12 3 -3 8 4 12 15 3 12 11 21 16 21 6 0 7
-5 3 -12 -4 -6 -3 -8 4 -4 6 3 9 15 7 25 -4 19 17 23 32 6 4 -4 2 -5 -4 -1 -7
4 -13 2 -13 -3 0 -6 7 -11 15 -11 18 0 18 5 5 30 -7 13 -7 21 2 26 6 4 8 3 5
-3 -4 -6 0 -14 9 -17 12 -4 15 -2 11 9 -7 18 9 30 19 14 5 -8 3 -9 -6 -4 -9 5
-11 4 -6 -3 11 -19 68 28 62 51 -2 11 -2 16 1 13 3 -3 12 2 20 12 14 16 14 16
9 0 -3 -10 0 -20 6 -24 6 -4 9 -3 6 2 -9 15 11 56 24 48 8 -5 9 -2 4 11 -5 14
-4 16 8 6 11 -9 15 -8 20 5 3 9 4 19 1 23 -2 5 7 7 20 5 14 -1 28 3 32 8 3 7
1 8 -5 4 -6 -4 -10 1 -9 13 1 15 4 17 14 10 9 -8 11 -6 8 10 -2 11 1 24 7 27
7 4 8 2 4 -4 -4 -7 -2 -12 4 -12 6 0 8 -5 4 -12 -4 -6 -3 -8 4 -5 5 4 8 17 4
30 -5 20 -4 21 13 7 17 -14 18 -14 5 10 -12 23 -12 24 4 11 9 -8 19 -11 23 -7
3 3 2 6 -4 6 -6 0 -13 7 -17 15 -5 13 -2 14 15 4 19 -10 20 -9 8 13 -12 22
-11 22 6 8 17 -14 18 -13 13 6 -3 13 0 21 7 21 7 0 11 -7 8 -16 -4 -14 -3 -14
5 -1 6 8 8 19 4 25 -10 16 -11 36 -1 29 5 -3 9 0 9 7 0 8 4 8 13 1 9 -8 17 -8
27 0 13 8 12 9 -2 5 -9 -3 -19 0 -21 7 -4 10 1 12 16 9 22 -5 22 -5 2 10 -20
16 -20 16 3 12 20 -4 22 -2 12 10 -10 12 -9 15 3 15 8 0 18 -6 21 -12 2 -7 4
-3 2 9 -1 12 -6 26 -11 30 -4 5 -5 2 0 -6 5 -10 4 -12 -4 -7 -6 4 -9 12 -5 17
3 5 10 6 16 3 7 -5 9 -1 5 9 -4 11 -2 14 8 11 8 -3 11 -13 8 -22 -4 -14 -3
-14 5 -3 5 7 9 31 8 51 0 21 3 36 8 32 5 -3 6 3 2 13 -5 15 -4 16 9 5 9 -7 18
-10 22 -6 3 3 1 6 -5 6 -7 0 -12 5 -12 11 0 5 5 7 12 3 8 -5 9 0 5 15 -4 18
-3 20 8 11 11 -9 13 -6 10 15 -1 17 2 25 10 22 7 -3 11 3 9 16 -1 12 8 30 20
40 11 10 16 16 9 13 -6 -3 -18 -3 -26 0 -13 5 -13 8 4 25 10 10 19 26 19 34 0
8 8 15 18 16 14 0 14 2 2 7 -8 4 -16 13 -18 21 -3 12 0 12 13 1 8 -7 18 -10
22 -6 3 3 1 6 -6 6 -7 0 -9 5 -4 13 12 19 12 38 1 31 -6 -4 -8 -1 -6 7 3 8 11
13 17 11 7 -1 10 2 6 8 -3 6 -10 8 -15 5 -5 -3 -12 0 -16 6 -5 8 -3 9 6 4 10
-6 12 -4 6 10 -5 15 -4 16 8 6 11 -9 16 -9 22 0 4 8 3 9 -4 5 -11 -7 -14 -3
-16 27 -1 6 -5 15 -11 19 -6 5 -5 8 3 8 7 0 11 4 7 9 -3 5 1 16 9 24 8 8 12
17 9 21 -4 3 -1 6 5 6 15 0 15 -13 0 -28 -7 -7 -8 -12 -4 -12 5 0 2 -8 -5 -17
-7 -10 -9 -15 -5 -11 5 4 15 3 21 -2 9 -8 14 -6 18 4 4 11 1 13 -11 9 -15 -6
-16 -5 -2 12 10 13 15 44 16 106 1 82 -8 111 -22 74 -4 -8 -11 -12 -16 -9 -5
4 1 14 14 23 12 9 24 22 26 29 3 18 -8 15 -29 -10 l-20 -23 17 27 c9 16 20 28
23 28 4 0 7 47 7 104 -1 79 -4 102 -13 99 -8 -3 -11 -15 -7 -32 12 -56 12 -70
-2 -75 -11 -4 -12 -2 -4 14 13 24 13 33 0 25 -6 -3 -7 1 -4 9 3 9 2 16 -4 16
-5 0 -13 7 -16 16 -3 8 -2 12 4 9 6 -3 10 1 10 9 0 10 -6 13 -17 10 -14 -4
-15 -3 -5 4 17 12 17 22 0 34 -9 6 -5 7 12 5 14 -2 19 -2 12 0 -7 3 -10 9 -7
14 3 5 -2 6 -11 2 -11 -4 -15 -3 -10 5 3 6 1 14 -4 17 -8 5 -6 13 6 26 9 10
14 19 9 19 -4 0 -2 6 4 13 8 10 7 14 -3 14 -8 0 -13 -8 -11 -18 3 -13 -1 -16
-12 -12 -8 3 -11 9 -6 12 4 3 9 11 10 16 1 6 5 18 8 28 5 13 2 17 -13 17 -12
0 -24 5 -28 11 -4 8 1 9 17 5 13 -3 18 -3 11 0 -10 5 -10 9 0 22 12 15 11 16
-5 3 -17 -13 -18 -12 -12 12 5 17 3 27 -4 27 -6 0 -8 -7 -4 -17 5 -14 3 -13
-13 3 -11 10 -17 20 -13 22 4 2 5 12 2 22 -3 12 0 20 6 20 8 0 8 4 -1 14 -10
10 -15 11 -21 2 -6 -7 -7 -5 -4 6 3 9 0 22 -8 28 -8 6 -11 19 -8 27 4 10 2 14
-4 10 -6 -4 -19 3 -29 15 -11 12 -14 18 -7 15 6 -4 14 -3 18 2 3 5 -3 14 -12
20 -17 10 -17 10 0 11 9 0 17 4 17 10 0 5 -7 7 -15 4 -8 -4 -15 -2 -15 4 0 6
6 13 13 15 11 5 -17 11 -36 8 -4 -1 -3 8 3 19 9 16 8 20 -5 20 -10 0 -13 -5
-9 -12 4 -7 3 -8 -5 -4 -9 6 -9 11 0 22 9 11 8 14 -5 14 -19 0 -21 11 -4 28
10 10 8 12 -11 10 -14 -2 -26 3 -28 12 -4 13 -3 13 7 0 10 -13 11 -12 6 3 -3
10 -6 21 -6 24 0 3 -8 -1 -17 -8 -9 -8 -14 -9 -10 -2 4 6 2 13 -3 15 -6 2 -12
13 -13 25 0 13 -7 25 -15 28 -7 2 -10 1 -7 -4 3 -5 2 -12 -3 -15 -13 -8 -11
28 2 36 6 5 1 8 -13 8 -14 0 -21 5 -18 13 2 6 0 21 -5 32 -8 18 -8 18 -4 -2 2
-13 0 -23 -5 -23 -5 0 -9 7 -9 16 0 8 -4 13 -9 9 -5 -3 -16 4 -24 15 -7 11
-17 17 -21 12 -4 -4 -7 -2 -6 3 5 22 -1 45 -11 45 -5 0 -8 -4 -5 -8 3 -5 -1
-9 -9 -9 -12 0 -12 3 -3 14 9 11 9 16 -2 23 -7 4 -18 6 -25 4 -6 -3 -18 3 -26
12 -8 10 -9 15 -3 11 7 -4 15 0 18 9 8 21 8 24 -5 24 -5 0 -7 -4 -4 -10 3 -5
1 -10 -4 -10 -6 0 -11 4 -11 8 0 13 -50 33 -62 26 -6 -4 -6 1 1 13 12 23 6 34
-15 26 -8 -3 -14 1 -15 8 0 8 -4 5 -9 -6 -8 -19 -9 -19 -9 3 -1 25 -11 28 -30
10 -11 -10 -13 -10 -7 0 4 6 2 12 -3 12 -6 0 -11 5 -11 11 0 8 4 8 14 0 11 -9
16 -9 22 0 4 7 3 9 -4 5 -6 -3 -13 -2 -17 4 -4 6 -10 8 -15 5 -5 -3 -11 3 -14
13 -4 10 -13 19 -21 19 -8 0 -12 -3 -10 -7 2 -4 -2 -7 -10 -7 -9 0 -14 7 -13
15 2 8 -4 17 -12 19 -13 4 -13 3 0 -6 11 -7 7 -10 -18 -9 -28 1 -30 2 -14 14
9 7 14 16 9 20 -4 4 -7 2 -7 -4 0 -7 -5 -12 -11 -12 -5 0 -7 5 -4 10 5 8 -5
12 -31 9 -3 0 -15 12 -26 27 -20 25 -22 26 -35 8 -11 -15 -15 -16 -26 -4 -9
10 -9 12 1 6 7 -4 12 -2 12 6 0 8 -9 14 -20 15 -13 1 -18 -3 -14 -10 3 -7 -4
-1 -15 12 -12 12 -19 26 -17 30 3 4 -5 8 -17 8 -20 2 -20 1 -4 -8 9 -6 17 -15
17 -22 0 -8 -3 -8 -9 1 -4 8 -12 14 -16 14 -4 0 -12 -6 -17 -14 -6 -9 -7 -5
-3 11 5 17 4 21 -5 16 -6 -4 -21 1 -33 12 -21 18 -21 18 -7 -1 14 -18 13 -19
-3 -13 -10 4 -22 7 -27 7 -5 0 -16 7 -25 16 -9 9 -18 14 -22 11 -3 -3 10 -16
28 -28 19 -11 25 -18 14 -14 -11 4 -25 8 -32 8 -7 0 -12 3 -11 6 2 19 -4 22
-19 10 -10 -7 -15 -9 -11 -5 4 5 2 16 -5 24 -9 13 -9 14 1 8 6 -4 12 -3 12 3
0 13 -91 11 -109 -3 -11 -8 -13 -8 -8 1 6 9 -48 12 -236 12 -232 0 -244 -1
-256 -20z m56 -4 c-8 -8 -16 -10 -24 -4 -7 7 -14 6 -18 -1 -3 -5 -1 -10 6 -10
7 0 10 -3 6 -6 -3 -3 -11 -3 -17 1 -17 10 4 30 34 31 20 2 22 -1 13 -11z m524
-2 c13 -16 12 -17 -3 -4 -10 7 -18 15 -18 17 0 8 8 3 21 -13z m328 -97 c9 -11
9 -16 0 -22 -8 -4 -9 -3 -5 4 4 7 2 12 -3 12 -6 0 -11 5 -11 10 0 14 5 13 19
-4z m-1283 -68 c4 -7 3 -8 -4 -4 -7 4 -12 2 -12 -5 0 -7 -3 -10 -6 -6 -6 5 3
27 11 27 2 0 7 -5 11 -12z m-116 -58 c-13 -24 -16 -25 -24 -4 -3 8 -2 12 3 9
5 -3 12 -1 16 5 11 19 16 10 5 -10z m1685 -40 c-3 -5 -12 -10 -18 -10 -7 0 -6
4 3 10 19 12 23 12 15 0z m50 -50 c3 -5 1 -10 -4 -10 -6 0 -11 5 -11 10 0 6 2
10 4 10 3 0 8 -4 11 -10z m-2235 -474 c0 -3 -4 -8 -10 -11 -5 -3 -10 -1 -10 4
0 6 5 11 10 11 6 0 10 -2 10 -4z m-56 -117 c-3 -5 -10 -7 -15 -3 -5 3 -7 10
-3 15 3 5 10 7 15 3 5 -3 7 -10 3 -15z m-107 -308 c0 -11 -5 -18 -9 -15 -4 3
-5 11 -1 19 7 21 12 19 10 -4z m2933 -117 c0 -8 -19 -13 -24 -6 -3 5 1 9 9 9
8 0 15 -2 15 -3z m30 -44 c0 -5 -4 -10 -10 -10 -5 0 -10 5 -10 10 0 6 5 10 10
10 6 0 10 -4 10 -10z m-11 -51 c-13 -24 -14 -24 -14 5 0 14 5 22 12 19 9 -4
10 -10 2 -24z m-29 -3 c0 -3 -4 -8 -10 -11 -5 -3 -10 -1 -10 4 0 6 5 11 10 11
6 0 10 -2 10 -4z m40 -105 c0 -14 -29 -21 -36 -9 -4 6 -3 8 4 4 6 -3 13 -2 17
4 8 12 15 13 15 1z m-19 -51 c6 0 7 5 4 10 -3 6 -2 10 3 10 5 0 8 -18 8 -39 0
-22 -4 -37 -8 -35 -4 3 -4 12 -1 21 5 12 3 14 -7 8 -8 -5 -11 -4 -6 3 3 6 2
13 -4 17 -5 3 -10 12 -9 18 0 9 2 9 6 0 2 -7 9 -13 14 -13z m-11 -46 c0 -8
-19 -13 -24 -6 -3 5 1 9 9 9 8 0 15 -2 15 -3z m-2910 -60 c0 -8 -19 -13 -24
-6 -3 5 1 9 9 9 8 0 15 -2 15 -3z m-5 -34 c3 -6 -1 -7 -9 -4 -18 7 -21 14 -7
14 6 0 13 -4 16 -10z m2892 -116 c-3 -3 -12 -4 -19 -1 -8 3 -5 6 6 6 11 1 17
-2 13 -5z m-2840 -123 c-10 -12 -9 -14 6 -8 11 4 16 3 12 -4 -4 -5 -12 -8 -18
-6 -16 5 -17 34 -1 34 11 0 11 -3 1 -16z m2793 -17 c0 -8 -19 -13 -24 -6 -3 5
1 9 9 9 8 0 15 -2 15 -3z m-10 -28 c0 -3 -4 -8 -10 -11 -5 -3 -10 -1 -10 4 0
6 5 11 10 11 6 0 10 -2 10 -4z m-2733 -60 c0 -8 -6 -12 -15 -9 -11 5 -11 7 0
14 7 5 13 9 14 9 0 0 1 -6 1 -14z m18 -64 c-3 -3 -11 0 -18 7 -9 10 -8 11 6 5
10 -3 15 -9 12 -12z m119 -188 c3 -8 2 -12 -4 -9 -6 3 -10 10 -10 16 0 14 7
11 14 -7z m46 -56 c0 -6 -6 -5 -15 2 -8 7 -15 14 -15 16 0 2 7 1 15 -2 8 -4
15 -11 15 -16z m2080 -258 c0 -5 -5 -10 -11 -10 -5 0 -7 5 -4 10 3 6 8 10 11
10 2 0 4 -4 4 -10z m-1750 -60 c0 -5 -7 -7 -15 -4 -8 4 -15 8 -15 10 0 2 7 4
15 4 8 0 15 -4 15 -10z m65 -30 c-3 -6 1 -13 9 -16 9 -3 16 -11 16 -17 0 -5
-9 -2 -20 8 -17 15 -19 35 -4 35 3 0 2 -5 -1 -10z m1525 -10 c0 -5 -2 -10 -4
-10 -2 0 -12 -3 -22 -7 -16 -6 -17 -5 -4 10 17 19 30 22 30 7z m-90 -40 c-8
-5 -19 -10 -25 -10 -5 0 -3 5 5 10 8 5 20 10 25 10 6 0 3 -5 -5 -10z m-1310
-20 c0 -5 -2 -10 -4 -10 -3 0 -8 5 -11 10 -3 6 -1 10 4 10 6 0 11 -4 11 -10z
m126 -46 c-5 -12 -2 -15 9 -10 9 3 14 2 11 -3 -3 -5 1 -11 9 -15 10 -3 15 1
15 11 0 9 3 14 6 10 4 -3 4 -13 0 -22 -5 -14 -8 -14 -35 0 -20 10 -28 20 -25
30 4 8 8 15 11 15 3 0 2 -7 -1 -16z m984 -38 c0 -3 -4 -8 -10 -11 -5 -3 -10
-1 -10 4 0 6 5 11 10 11 6 0 10 -2 10 -4z m-50 -10 c0 -3 -4 -8 -10 -11 -5 -3
-10 -1 -10 4 0 6 5 11 10 11 6 0 10 -2 10 -4z m-580 -21 c0 -7 -30 -13 -34 -7
-3 4 4 9 15 9 10 1 19 0 19 -2z m33 -36 c-9 -9 -12 -7 -10 9 1 14 5 18 11 12
7 -7 6 -14 -1 -21z m144 24 c-4 -3 1 -11 10 -18 13 -9 13 -14 3 -20 -8 -5 -11
-4 -7 2 4 6 0 14 -9 17 -14 5 -11 26 3 26 4 0 3 -3 0 -7z m40 -25 c-3 -8 -6
-5 -6 6 -1 11 2 17 5 13 3 -3 4 -12 1 -19z m113 6 c0 5 7 3 15 -4 13 -11 14
-10 9 4 -8 22 8 21 22 -2 10 -15 8 -18 -15 -17 -31 1 -51 12 -51 28 0 7 4 6
10 -3 5 -8 10 -11 10 -6z m-213 -10 c-3 -3 -12 -4 -19 -1 -8 3 -5 6 6 6 11 1
17 -2 13 -5z"/>
<path d="M1134 2959 c0 -13 3 -15 13 -7 7 6 13 12 13 13 0 2 -6 5 -13 8 -7 3
-13 -3 -13 -14z"/>
<path d="M1036 2947 c3 -10 9 -15 12 -12 3 3 0 11 -7 18 -10 9 -11 8 -5 -6z"/>
<path d="M2001 2924 c0 -11 3 -14 6 -6 3 7 2 16 -1 19 -3 4 -6 -2 -5 -13z"/>
<path d="M975 2920 c3 -5 8 -10 11 -10 2 0 4 5 4 10 0 6 -5 10 -11 10 -5 0 -7
-4 -4 -10z"/>
<path d="M905 2891 c-3 -5 -2 -12 3 -15 5 -3 9 1 9 9 0 17 -3 19 -12 6z"/>
<path d="M513 2643 c0 -9 4 -10 14 -2 7 6 13 12 13 14 0 1 -6 2 -13 2 -8 0
-14 -6 -14 -14z"/>
<path d="M2470 2630 c-9 -6 -10 -10 -3 -10 6 0 15 5 18 10 8 12 4 12 -15 0z"/>
<path d="M2550 2583 c0 -24 2 -28 12 -25 6 2 8 -4 5 -12 -7 -16 8 -32 17 -18
3 5 -4 21 -15 38 -10 16 -19 23 -19 17z"/>
<path d="M190 2270 c-8 -5 -12 -12 -9 -15 4 -3 12 1 19 10 14 17 11 19 -10 5z"/>
<path d="M2815 2160 c3 -5 8 -10 11 -10 2 0 4 5 4 10 0 6 -5 10 -11 10 -5 0
-7 -4 -4 -10z"/>
<path d="M2846 2131 c-3 -5 6 -16 20 -26 l25 -16 -16 25 c-19 29 -21 30 -29
17z"/>
<path d="M2883 2031 c0 -11 5 -18 9 -15 4 3 5 11 1 19 -7 21 -12 19 -10 -4z"/>
<path d="M63 1995 c0 -7 6 -11 14 -8 7 3 13 6 13 8 0 2 -6 5 -13 8 -8 3 -14
-1 -14 -8z"/>
<path d="M26 1882 c-3 -5 1 -9 9 -9 8 0 12 4 9 9 -3 4 -7 8 -9 8 -2 0 -6 -4
-9 -8z"/>
<path d="M2935 1820 c3 -5 11 -10 16 -10 6 0 7 5 4 10 -3 6 -11 10 -16 10 -6
0 -7 -4 -4 -10z"/>
<path d="M2980 1800 c-9 -6 -10 -10 -3 -10 6 0 15 5 18 10 8 12 4 12 -15 0z"/>
<path d="M2980 1761 c-8 -6 -18 -7 -24 -4 -5 3 -6 1 -2 -5 5 -9 13 -9 27 -2
10 6 19 13 19 15 0 7 -3 6 -20 -4z"/>
<path d="M2950 1239 c0 -5 5 -7 10 -4 6 3 10 8 10 11 0 2 -4 4 -10 4 -5 0 -10
-5 -10 -11z"/>
<path d="M2907 1037 c-17 -32 -17 -32 2 -10 10 12 22 19 25 15 4 -3 4 1 0 11
-3 9 -7 17 -8 17 0 0 -9 -15 -19 -33z"/>
<path d="M183 765 c0 -8 4 -12 9 -9 5 3 6 10 3 15 -9 13 -12 11 -12 -6z"/>
<path d="M2696 642 c-3 -5 1 -9 9 -9 8 0 12 4 9 9 -3 4 -7 8 -9 8 -2 0 -6 -4
-9 -8z"/>
<path d="M327 539 c7 -7 15 -10 18 -7 3 3 -2 9 -12 12 -14 6 -15 5 -6 -5z"/>
<path d="M393 492 c0 -12 5 -22 9 -22 11 0 10 12 -2 30 -7 12 -9 10 -7 -8z"/>
<path d="M2470 379 c0 -5 5 -7 10 -4 6 3 10 8 10 11 0 2 -4 4 -10 4 -5 0 -10
-5 -10 -11z"/>
<path d="M520 360 c-12 -7 -10 -9 7 -7 12 0 19 5 17 9 -6 10 -6 10 -24 -2z"/>
<path d="M1225 35 c0 -13 3 -21 8 -18 4 2 7 12 7 21 0 15 2 15 11 2 8 -12 10
-12 7 -1 -7 24 -33 21 -33 -4z"/>
<path d="M1250 16 c0 -2 7 -7 16 -10 8 -3 12 -2 9 4 -6 10 -25 14 -25 6z"/>
</g>
</svg>
