<svg width="1428" height="804" viewBox="0 0 1428 804" fill="none" xmlns="http://www.w3.org/2000/svg">
<path opacity="0.4" d="M1445.45 -136.634C1442.35 -138.455 1437.33 -138.455 1434.24 -136.634C1431.91 -135.267 1431.34 -133.268 1432.51 -131.598L1258.8 -30.0271V98.1892L1216.48 122.937V262.388L1071.53 347.157L1048.94 333.948L1160.72 268.588V192.144L1160.27 191.891L1033.18 117.572V91.6354L1105.05 49.6052C1108.15 50.921 1112.5 50.7692 1115.3 49.1497C1118.4 47.3278 1118.4 44.3925 1115.3 42.5959C1112.2 40.774 1107.18 40.774 1104.08 42.5959C1101.28 44.2407 1101.03 46.7711 1103.28 48.593L1031.4 90.6232V118.635L1031.85 118.888L1158.94 193.206V267.575L1074.5 316.969V285.111L1113.22 262.464C1116.32 263.78 1120.67 263.628 1123.47 262.008C1126.57 260.187 1126.57 257.251 1123.47 255.455C1120.37 253.633 1115.35 253.633 1112.25 255.455C1109.45 257.099 1109.2 259.63 1111.45 261.452L1072.73 284.099V318.032L1047.19 332.961L1016.99 315.299V259.832L1073.95 226.507V188.171L1073.5 187.918L953.556 117.775C955.804 115.953 955.555 113.422 952.756 111.778C949.659 109.956 944.637 109.956 941.539 111.778C938.441 113.599 938.441 116.535 941.539 118.331C944.337 119.976 948.684 120.103 951.782 118.787L1072.15 189.183V225.444L1016.96 257.732V219.497L1016.51 219.244L943.138 176.328C945.386 174.507 945.136 171.976 942.338 170.331C939.24 168.509 934.219 168.509 931.121 170.331C928.023 172.153 928.023 175.089 931.121 176.885C933.919 178.53 938.266 178.656 941.364 177.341L1015.19 220.51V314.211L993.979 301.812L959.027 322.258L927.373 303.735V258.744L926.924 258.491L843.229 209.553V167.143C844.953 167.042 846.627 166.612 847.951 165.827C851.049 164.005 851.049 161.07 847.951 159.273C844.853 157.452 839.832 157.452 836.734 159.273C833.636 161.095 833.636 164.031 836.734 165.827C838.058 166.612 839.732 167.017 841.456 167.143V210.59L841.905 210.843L925.6 259.782V302.698L789.39 223.04V138.6L863.266 95.4057H931.071L931.271 95.2792L1047.62 27.2616C1050.72 28.5774 1055.06 28.4256 1057.86 26.8061C1060.96 24.9842 1060.96 22.0489 1057.86 20.2523C1054.76 18.4304 1049.74 18.4304 1046.64 20.2523C1043.85 21.8971 1043.6 24.4275 1045.84 26.2494L930.596 93.6344H866.339L1080.07 -31.3429C1083.17 -30.0271 1087.52 -30.1789 1090.31 -31.7984C1093.41 -33.6203 1093.41 -36.5555 1090.31 -38.3521C1087.22 -40.174 1082.2 -40.174 1079.1 -38.3521C1076.3 -36.7074 1076.05 -34.1769 1078.3 -32.355L787.617 137.613V224.128L788.066 224.381L957.278 323.32L923.226 343.235L634.319 174.304V73.4923L633.869 73.2393L535.61 15.7988C537.858 13.9769 537.608 11.4465 534.81 9.8017C531.712 7.9798 526.691 7.9798 523.593 9.8017C520.495 11.6236 520.495 14.5589 523.593 16.3555C526.391 18.0003 530.738 18.1268 533.836 16.811L632.52 74.5298V175.342L632.97 175.595L921.427 344.272L888.999 363.225L603.289 196.142H432.903L326.424 133.868V38.1677C327.548 37.9399 328.598 37.5857 329.497 37.0796C332.595 35.2577 332.595 32.3224 329.497 30.5258C326.399 28.7039 321.378 28.7039 318.28 30.5258C315.182 32.3477 315.182 35.283 318.28 37.0796C320.029 38.0918 322.377 38.522 324.65 38.3954V134.906L325.1 135.159L432.453 197.938H602.84L844.029 338.984H795.511L713.191 290.855H649.784L649.584 290.982L561.642 342.4C558.544 341.084 554.197 341.236 551.399 342.855C548.301 344.677 548.301 347.612 551.399 349.409C554.497 351.231 559.519 351.231 562.617 349.409C565.415 347.764 565.665 345.234 563.416 343.412L650.258 292.626H712.717L795.037 340.755H847.102L887.25 364.237L800.708 414.846L776.099 400.448V362.668L713.516 326.104C715.764 324.282 715.515 321.752 712.717 320.107C709.619 318.285 704.597 318.285 701.499 320.107C698.401 321.929 698.401 324.864 701.499 326.661C704.297 328.305 708.644 328.432 711.742 327.116L774.25 363.681V399.385L707.595 360.391H676.016L675.816 360.518L638.166 382.532C635.068 381.216 630.721 381.368 627.923 382.988C624.825 384.81 624.825 387.745 627.923 389.542C631.021 391.363 636.043 391.363 639.141 389.542C641.939 387.897 642.189 385.366 639.94 383.544L676.491 362.162H707.095L798.859 415.807L782.195 425.549L835.385 456.648L810.476 471.223H772.802L745.844 455.459C747.993 453.662 747.693 451.157 744.945 449.538C741.847 447.716 736.826 447.716 733.728 449.538C730.63 451.36 730.63 454.295 733.728 456.091C736.551 457.736 740.973 457.863 744.096 456.496L772.327 472.995H807.403L743.871 510.141L594.42 422.741H486.867L486.667 422.867L426.108 458.268C423.01 456.952 418.663 457.104 415.865 458.723C412.767 460.545 412.767 463.48 415.865 465.277C418.963 467.099 423.984 467.099 427.082 465.277C429.88 463.632 430.13 461.102 427.882 459.28L487.342 424.512H593.921L709.194 491.922H659.852L611.634 463.733C613.882 461.911 613.633 459.381 610.835 457.736C607.737 455.914 602.715 455.914 599.617 457.736C596.519 459.558 596.519 462.493 599.617 464.29C602.415 465.935 606.762 466.061 609.86 464.746L659.377 493.719H712.267L742.072 511.153L666.198 555.512H423.684L235.335 445.489C237.584 443.667 237.334 441.137 234.536 439.492C231.438 437.67 226.416 437.67 223.318 439.492C220.22 441.314 220.22 444.249 223.318 446.046C226.116 447.69 230.463 447.817 233.561 446.501L423.26 557.435H663.15L633.045 575.046H453.539L453.34 575.173L364.824 626.945C361.726 625.629 357.379 625.781 354.58 627.401C351.483 629.223 351.483 632.158 354.58 633.955C357.678 635.776 362.7 635.776 365.798 633.955C368.596 632.31 368.846 629.779 366.597 627.957L454.039 576.843H633.544L633.744 576.716L837.183 457.762L859.768 470.97L645.886 596.049H489.465L489.266 596.175L300.342 706.653H38.5912L-12 677.048V679.122L38.1166 708.425H300.816L301.016 708.298L419.587 638.965V680.008L341.439 725.707C338.341 724.392 333.994 724.544 331.196 726.163C328.098 727.985 328.098 730.92 331.196 732.717C334.294 734.539 339.316 734.539 342.414 732.717C345.212 731.072 345.462 728.542 343.213 726.72L421.361 681.02V638.155H420.961L489.965 597.795H646.386L646.586 597.668L861.567 471.957L887.225 486.963L470.103 730.87V774.95H471.877V731.907L888.999 488L920.703 506.548L705.546 632.36V654.856L667.397 677.174V728.921L593.421 772.191C590.323 770.875 585.976 771.027 583.178 772.647C582.054 773.305 581.329 774.114 581.029 774.975H596.494C596.269 774.342 595.845 773.76 595.195 773.229L669.171 729.959V678.212L705.546 656.931V739.777L727.007 752.328L688.283 775H691.831L728.731 753.416L765.631 775H769.179L707.245 738.79V633.448L922.402 507.636L951.257 524.514L798.984 613.559C795.886 612.244 791.539 612.395 788.741 614.015C785.643 615.837 785.643 618.772 788.741 620.569C791.839 622.391 796.86 622.391 799.958 620.569C802.757 618.924 803.006 616.393 800.758 614.572L953.031 525.526L980.888 541.822L798.734 648.327H749.242C748.942 647.467 748.218 646.632 747.069 645.949C743.971 644.127 738.949 644.127 735.851 645.949C732.753 647.771 732.753 650.706 735.851 652.503C738.949 654.324 743.971 654.324 747.069 652.503C748.218 651.819 748.942 650.984 749.242 650.124H799.209L799.409 649.997L982.636 542.859L993.879 549.439L1002.52 544.378L1046.17 569.884V605.411L1010.12 626.49V626.389H953.531L953.331 626.515L891.247 662.827C888.15 661.511 883.802 661.663 881.004 663.282C877.906 665.104 877.906 668.039 881.004 669.836C884.102 671.658 889.124 671.658 892.222 669.836C895.02 668.191 895.27 665.661 893.021 663.839L954.006 628.185H1007.2L901.191 690.155C898.068 688.738 893.596 688.839 890.723 690.509C887.625 692.331 887.625 695.267 890.723 697.063C893.821 698.885 898.842 698.885 901.94 697.063C904.664 695.469 904.988 693.015 902.915 691.193L1035.13 613.888V630.969L956.479 676.972V709.437L892.447 746.887C889.349 745.571 885.002 745.723 882.204 747.343C879.106 749.164 879.106 752.1 882.204 753.896C885.302 755.718 890.323 755.718 893.421 753.896C896.219 752.252 896.469 749.721 894.221 747.899L958.253 710.449V677.984L1036.9 631.981V612.826L1047.92 606.373V568.771L1004.27 543.264L1032.95 526.488L1122.74 578.994V638.686L1061.76 674.34C1058.64 672.923 1054.16 673.024 1051.29 674.694C1048.19 676.516 1048.19 679.451 1051.29 681.248C1054.39 683.07 1059.41 683.07 1062.51 681.248C1065.23 679.654 1065.56 677.199 1063.48 675.378L1122.72 640.736V688.966L1075.92 716.345V774.899H1077.7V717.382L1122.72 691.041V774.874H1124.49V577.931L1034.7 525.425L1066.91 506.599L1184.28 575.224V738.689L1240.69 771.685V775H1242.46V770.749L1186.05 737.752V574.287L1068.68 505.662L1092.54 491.695L1250.93 584.308V723.759L1389.5 804H1394L1252.86 722.747V583.296L1094.46 490.682L1133.14 468.06L1396.69 622.163V691.547L1487 744.357V742.282L1398.46 690.509V621.125L1250.23 534.433H1367.45L1487 604.349V602.274L1367.93 532.637H1247.16L1134.93 467.023L1179.9 440.732L1276.37 497.135H1431.26L1487 529.727V527.652L1474.78 520.516H1487V518.719H1471.71L1431.74 495.338H1276.84L1249.83 479.548H1315.69L1315.89 479.422L1348.92 460.115H1486.53L1486.98 460.393V458.318H1351.97L1389.14 436.582C1392.24 437.898 1396.59 437.746 1399.38 436.126C1402.48 434.305 1402.48 431.369 1399.38 429.573C1396.29 427.751 1391.26 427.751 1388.17 429.573C1385.37 431.217 1385.12 433.748 1387.37 435.57L1315.16 477.802H1246.71L1181.6 439.745L1205.66 425.676L1190.17 416.617H1235.17L1293.98 451.005C1291.73 452.827 1291.98 455.358 1294.78 457.002C1297.88 458.824 1302.9 458.824 1306 457.002C1309.09 455.181 1309.09 452.245 1306 450.449C1303.2 448.804 1298.85 448.677 1295.75 449.993L1235.64 414.846H1187.1L1154.17 395.589L1174.41 383.747H1210.31L1241.89 365.275H1265.45L1318.66 396.399C1316.26 398.221 1316.46 400.827 1319.31 402.497C1322.41 404.319 1327.43 404.319 1330.53 402.497C1333.63 400.675 1333.63 397.74 1330.53 395.943C1327.78 394.349 1323.56 394.172 1320.46 395.387L1265.92 363.504H1241.41L1209.83 381.976H1177.48L1242.21 344.12H1277.17L1350.02 386.707H1486.95V384.911H1350.49L1277.64 342.324H1241.74L1241.54 342.45L1152.4 394.577L1129.01 380.913L1229.75 322.005H1300.8L1359.41 356.267H1486.98V354.47H1359.91L1304.37 322.005H1486.98V320.208H1229.3L1229.1 320.335L1127.29 379.875L1100.71 364.339L1241.16 282.201H1486.98V280.405H1307.84L1486.98 175.645V173.57L1304.3 280.405H1242.46L1375.62 202.544V185.387L1439.36 148.14C1442.45 149.455 1446.8 149.304 1449.6 147.684C1452.7 145.862 1452.7 142.927 1449.6 141.13C1446.5 139.308 1441.48 139.308 1438.38 141.13C1435.58 142.775 1435.33 145.306 1437.58 147.127L1402.88 167.421V120.381L1487 71.0378V68.9629L1401.11 119.192V168.307L1373.85 184.249V201.405L1239.59 279.924L1240.04 280.708L1098.93 363.225L1073.28 348.22L1218.23 263.451V123.999L1487 -33.1901V-35.265L1260.58 97.1517V-28.9896L1433.89 -130.333C1434.01 -130.257 1434.11 -130.156 1434.24 -130.08C1437.33 -128.258 1442.35 -128.258 1445.45 -130.08C1448.55 -131.902 1448.55 -134.837 1445.45 -136.634ZM1202.17 425.625L993.954 547.389L785.768 425.651L993.979 303.887L1202.17 425.625Z" fill="url(#paint0_radial_203_865)"/>
<path opacity="0.5" d="M1013.9 497.775L1218.23 367.707L1135.01 314.809L1005.45 406.207L946.666 480.394L1013.9 497.775Z" fill="#0F054C"/>
<path opacity="0.5" d="M1118.93 301.587C1121.17 295.1 1106.06 283.84 1085.17 276.438C1064.28 269.036 1045.53 268.295 1043.28 274.782C1041.04 281.269 1056.16 292.528 1077.05 299.93C1097.94 307.332 1116.69 308.074 1118.93 301.587Z" fill="#0F054C"/>
<path d="M1096.18 251.204L1095.91 244.528L1094.39 240.621L1093.42 243.851L1096.18 251.204Z" fill="#DD821F"/>
<path d="M1026.99 252.482L1026.73 245.93C1026.73 245.93 1032.2 251.452 1032.2 251.59C1032.22 251.713 1026.99 252.482 1026.99 252.482Z" fill="#FFD85A"/>
<path d="M1062.07 271.892C1081.17 271.431 1096.32 261.602 1095.92 244.512C1095.51 227.439 1079.7 213.964 1060.61 214.426C1041.5 214.887 1026.35 229.1 1026.75 246.189C1027.14 263.278 1042.96 272.369 1062.07 271.892Z" fill="#FFD85A"/>
<path d="M1062.31 282.975C1081.41 282.512 1096.57 268.292 1096.17 251.213C1095.77 234.135 1079.95 220.665 1060.85 221.127C1041.74 221.59 1026.58 235.81 1026.98 252.888C1027.39 269.967 1043.2 283.437 1062.31 282.975Z" fill="#FFD85A"/>
<path d="M1085.73 229.762C1092 235.192 1095.98 242.759 1096.18 251.204C1096.59 268.278 1081.43 282.506 1062.32 282.967C1052.88 283.198 1044.23 280.014 1037.87 274.677L1085.73 229.762Z" fill="#DD821F"/>
<path d="M1062.27 281.596C1080.52 281.154 1095.01 267.57 1094.62 251.256C1094.23 234.942 1079.13 222.075 1060.88 222.516C1042.63 222.958 1028.15 236.542 1028.53 252.856C1028.92 269.17 1044.02 282.037 1062.27 281.596Z" fill="#F9BF30"/>
<path d="M1062.14 275.765C1076.79 275.411 1088.42 264.507 1088.11 251.412C1087.8 238.316 1075.67 227.987 1061.02 228.342C1046.37 228.697 1034.74 239.6 1035.05 252.696C1035.36 265.792 1047.49 276.12 1062.14 275.765Z" fill="#F2B42A"/>
<path d="M1035.06 252.681C1035.04 252.142 1035.06 251.604 1035.09 251.066C1036.3 263.386 1048.03 272.862 1062.07 272.523C1076.12 272.185 1087.37 262.14 1087.99 249.773C1088.04 250.312 1088.09 250.835 1088.1 251.389C1088.4 264.478 1076.78 275.384 1062.14 275.753C1047.5 276.107 1035.38 265.771 1035.06 252.681Z" fill="#FFD85A"/>
<path d="M1056.51 254.033L1061.94 248.926C1067.18 250.126 1076.95 252.387 1084.74 254.233C1082.8 260.139 1078.08 265.015 1071.89 267.599L1056.51 254.033Z" fill="#FFD85A"/>
<path d="M1065.06 269.428C1064.19 269.536 1063.31 269.597 1062.41 269.628C1056 269.782 1050.16 267.659 1045.78 264.075L1054.67 255.738L1065.06 269.428Z" fill="#FFD85A"/>
<path d="M1067.78 243.45L1078.03 233.836C1081.48 236.882 1084.56 240.25 1085.4 244.742L1067.78 243.45Z" fill="#FFD85A"/>
<path d="M1062.41 231.159C1047.77 231.513 1036.14 242.419 1036.45 255.524C1036.52 258.185 1037.08 260.708 1038.03 263.076C1036.23 259.969 1035.16 256.447 1035.07 252.694C1034.77 239.604 1046.39 228.698 1061.03 228.329C1072.71 228.052 1082.78 234.558 1086.55 243.849C1082.04 236.097 1072.87 230.898 1062.41 231.159Z" fill="#DD821F"/>
<path d="M1095.91 244.526C1095.97 247.064 1096.2 248.909 1095.6 251.278C1094.85 248.771 1093.19 241.28 1093.19 241.28L1090.56 235.327L1088.37 233.497L1084.67 230.759L1084.36 222.176C1091.28 227.652 1095.71 235.589 1095.91 244.526Z" fill="#DD821F"/>
<path d="M1028.98 243.653L1028.83 241.899C1028.83 241.653 1028.63 241.453 1028.39 241.453H1028.25C1028.02 241.453 1027.83 241.668 1027.84 241.915L1027.99 243.668C1027.99 243.914 1028.19 244.114 1028.43 244.114H1028.57C1028.8 244.114 1028.98 243.899 1028.98 243.653Z" fill="#DD821F"/>
<path d="M1032.02 236.9L1031.84 233.731C1031.84 233.439 1031.61 233.208 1031.34 233.223H1031.03C1030.76 233.223 1030.56 233.469 1030.56 233.762L1030.74 236.93C1030.74 237.223 1030.97 237.438 1031.24 237.438H1031.55C1031.81 237.438 1032.02 237.192 1032.02 236.9Z" fill="#DD821F"/>
<path d="M1036.23 231.025L1036.04 227.964C1036.03 227.641 1035.79 227.38 1035.48 227.395L1034.95 227.411C1034.65 227.411 1034.42 227.687 1034.42 228.01L1034.6 231.071C1034.62 231.394 1034.86 231.656 1035.16 231.641L1035.7 231.625C1036 231.625 1036.24 231.348 1036.23 231.025Z" fill="#DD821F"/>
<path d="M1042.53 226.269L1042.33 222.546C1042.32 222.223 1042.07 221.962 1041.77 221.977L1041.24 221.993C1040.94 221.993 1040.71 222.269 1040.71 222.592L1040.91 226.315C1040.92 226.638 1041.16 226.899 1041.47 226.884L1042 226.869C1042.3 226.869 1042.55 226.592 1042.53 226.269Z" fill="#DD821F"/>
<path d="M1048.88 223.162L1048.68 218.886C1048.67 218.563 1048.42 218.302 1048.12 218.317L1047.59 218.332C1047.29 218.332 1047.06 218.609 1047.06 218.932L1047.25 223.208C1047.27 223.531 1047.51 223.793 1047.82 223.778L1048.35 223.762C1048.65 223.747 1048.88 223.485 1048.88 223.162Z" fill="#DD821F"/>
<path d="M1055.26 221.258L1055.06 217.136C1055.06 216.813 1054.8 216.552 1054.5 216.567L1053.97 216.582C1053.67 216.582 1053.44 216.859 1053.44 217.182L1053.63 221.305C1053.65 221.628 1053.89 221.889 1054.2 221.874L1054.73 221.858C1055.02 221.858 1055.26 221.581 1055.26 221.258Z" fill="#DD821F"/>
<path d="M1061.66 220.609L1061.46 216.425C1061.44 216.102 1061.2 215.841 1060.9 215.856L1060.36 215.872C1060.06 215.872 1059.83 216.148 1059.83 216.471L1060.03 220.655C1060.04 220.978 1060.29 221.24 1060.59 221.224L1061.12 221.209C1061.43 221.194 1061.67 220.932 1061.66 220.609Z" fill="#DD821F"/>
<path d="M1068.08 220.742L1067.88 216.82C1067.87 216.497 1067.62 216.235 1067.32 216.251L1066.79 216.266C1066.49 216.266 1066.26 216.543 1066.26 216.866L1066.46 220.788C1066.47 221.111 1066.71 221.373 1067.02 221.357L1067.55 221.342C1067.85 221.327 1068.08 221.065 1068.08 220.742Z" fill="#DD821F"/>
<path d="M1074.54 222.162L1074.34 218.378C1074.32 218.055 1074.08 217.794 1073.78 217.809L1073.24 217.825C1072.94 217.825 1072.71 218.101 1072.71 218.425L1072.91 222.224C1072.93 222.547 1073.17 222.808 1073.47 222.793L1074 222.778C1074.31 222.762 1074.54 222.485 1074.54 222.162Z" fill="#DD821F"/>
<path d="M1081.02 225.364L1080.82 221.257C1080.82 220.934 1080.57 220.673 1080.26 220.688L1079.73 220.704C1079.43 220.704 1079.2 220.98 1079.2 221.303L1079.4 225.41C1079.41 225.733 1079.66 225.995 1079.96 225.98L1080.49 225.964C1080.79 225.949 1081.04 225.687 1081.02 225.364Z" fill="#DD821F"/>
<path d="M841.536 417.499L841.581 431.343H841.596C841.581 431.527 841.688 431.712 841.916 431.85L990.596 518.234C991.082 518.511 991.933 518.481 992.479 518.157L1016.71 503.899C1016.98 503.745 1017.12 503.545 1017.15 503.345V503.329C1017.15 503.314 1017.15 503.299 1017.15 503.283L1017.1 489.301L1005.35 496.1L868.164 416.391C867.678 416.115 866.827 416.145 866.28 416.468L857.971 421.36L841.536 417.499Z" fill="url(#paint1_linear_203_865)"/>
<path d="M868.103 402.484L1016.78 488.868C1017.27 489.145 1017.21 489.652 1016.65 489.975L992.419 504.234C991.857 504.557 991.021 504.604 990.535 504.311L841.855 417.927C841.369 417.65 841.429 417.143 841.991 416.82L866.22 402.561C866.782 402.238 867.617 402.191 868.103 402.484Z" fill="url(#paint2_linear_203_865)"/>
<path opacity="0.6" d="M873.48 423.298L990.307 489.932C991.173 485.24 992.525 480.487 994.302 475.796L877.688 408.039C875.759 413.1 874.331 418.253 873.48 423.298Z" fill="#24126A"/>
<path d="M862.954 410.466L1003.14 491.928C1003.48 492.128 1003.43 492.467 1003.05 492.682L996.961 496.266C996.581 496.497 996.004 496.512 995.669 496.327L855.48 414.865C855.146 414.665 855.192 414.327 855.571 414.112L861.663 410.528C862.042 410.297 862.635 410.282 862.954 410.466Z" fill="#24126A"/>
<path d="M855.495 414.868L858.351 416.529L861.632 414.591C862.012 414.36 862.589 414.345 862.923 414.529L1000.27 494.33L1003.07 492.684C1003.45 492.454 1003.49 492.115 1003.16 491.931L862.969 410.469C862.635 410.269 862.058 410.299 861.678 410.53L855.587 414.114C855.192 414.329 855.161 414.668 855.495 414.868Z" fill="#453C9E"/>
<path opacity="0.96" d="M1216.37 270.171L1099.74 202.398C1099.8 223.564 1085.18 249.328 1067.12 259.957L906.397 354.509C885.162 366.999 867.997 397.286 868.058 422.158L984.687 489.931C984.626 465.058 1001.79 434.772 1023.03 422.281L1183.75 327.729C1201.81 317.101 1216.41 291.336 1216.37 270.171Z" fill="url(#paint3_linear_203_865)"/>
<path opacity="0.8" d="M868.058 422.174L984.687 489.947C984.687 488.855 984.733 487.747 984.793 486.64H984.778L868.164 418.883C868.088 419.975 868.058 421.082 868.058 422.174Z" fill="#453C9E"/>
<g opacity="0.32">
<path opacity="0.32" d="M1036.94 371.352L1063.36 386.703L1060.82 388.195L1034.4 372.844L1036.94 371.352Z" fill="#453C9E"/>
<path opacity="0.32" d="M1023.39 363.477L1032.9 369.014L1030.36 370.506L1020.85 364.984L1023.39 363.477Z" fill="#453C9E"/>
<path opacity="0.32" d="M1012.89 357.383L1019.35 361.136L1016.81 362.628L1010.36 358.875L1012.89 357.383Z" fill="#453C9E"/>
<path opacity="0.32" d="M1054.77 374.922L1069.16 383.29L1066.62 384.782L1052.22 376.414L1054.77 374.922Z" fill="#453C9E"/>
<path opacity="0.32" d="M1033.1 362.324L1050.73 372.584L1048.2 374.076L1030.55 363.832L1033.1 362.324Z" fill="#453C9E"/>
<path opacity="0.32" d="M1022.6 356.23L1029.06 359.984L1026.52 361.476L1020.05 357.722L1022.6 356.23Z" fill="#453C9E"/>
<path opacity="0.32" d="M1012.61 350.418L1019.06 354.187L1016.53 355.679L1010.07 351.925L1012.61 350.418Z" fill="#453C9E"/>
<path opacity="0.32" d="M1064.56 373.828L1074.96 379.873L1072.42 381.365L1062 375.32L1064.56 373.828Z" fill="#453C9E"/>
<path opacity="0.32" d="M1056.96 369.414L1060.52 371.475L1057.98 372.967L1054.41 370.906L1056.96 369.414Z" fill="#453C9E"/>
<path opacity="0.32" d="M1046.46 363.305L1052.92 367.058L1050.38 368.55L1043.91 364.797L1046.46 363.305Z" fill="#453C9E"/>
<path opacity="0.32" d="M1042.33 354.125L1080.78 376.459L1078.23 377.951L1039.8 355.617L1042.33 354.125Z" fill="#453C9E"/>
<path opacity="0.32" d="M1028.78 346.25L1038.29 351.772L1035.76 353.28L1026.25 347.742L1028.78 346.25Z" fill="#453C9E"/>
<path opacity="0.32" d="M1076.16 366.984L1086.58 373.045L1084.03 374.537L1073.62 368.492L1076.16 366.984Z" fill="#453C9E"/>
<path opacity="0.32" d="M1051.72 352.785L1072.12 364.644L1069.58 366.137L1049.18 354.277L1051.72 352.785Z" fill="#453C9E"/>
<path opacity="0.32" d="M1041.22 346.695L1047.68 350.448L1045.14 351.941L1038.69 348.187L1041.22 346.695Z" fill="#453C9E"/>
<path opacity="0.32" d="M1071.07 357.246L1092.38 369.629L1089.85 371.121L1068.54 358.738L1071.07 357.246Z" fill="#453C9E"/>
<path opacity="0.32" d="M1051.63 345.941L1067.03 354.894L1064.5 356.401L1049.09 347.449L1051.63 345.941Z" fill="#453C9E"/>
<path opacity="0.32" d="M1037.18 337.559L1047.59 343.604L1045.05 345.096L1034.63 339.051L1037.18 337.559Z" fill="#453C9E"/>
<path opacity="0.32" d="M1090.99 362.031L1098.19 366.215L1095.65 367.707L1088.45 363.523L1090.99 362.031Z" fill="#453C9E"/>
<path opacity="0.32" d="M1077.44 354.156L1086.96 359.694L1084.41 361.186L1074.9 355.648L1077.44 354.156Z" fill="#453C9E"/>
<path opacity="0.32" d="M1058.09 342.91L1073.41 351.816L1070.88 353.308L1055.55 344.402L1058.09 342.91Z" fill="#453C9E"/>
<path opacity="0.32" d="M1081.95 349.988L1103.99 362.801L1101.45 364.293L1079.41 351.48L1081.95 349.988Z" fill="#453C9E"/>
<path opacity="0.32" d="M1057.25 335.637L1077.91 347.65L1075.37 349.142L1054.71 337.144L1057.25 335.637Z" fill="#453C9E"/>
<path opacity="0.32" d="M1046.75 329.543L1053.22 333.296L1050.67 334.788L1044.22 331.035L1046.75 329.543Z" fill="#453C9E"/>
<path opacity="0.32" d="M1036.68 323.684L1043.14 327.437L1040.6 328.929L1034.15 325.176L1036.68 323.684Z" fill="#453C9E"/>
<path opacity="0.32" d="M1096.59 351.711L1109.79 359.386L1107.26 360.878L1094.06 353.203L1096.59 351.711Z" fill="#453C9E"/>
<path opacity="0.32" d="M983.35 340.218L965.046 329.574L962.494 331.066L980.813 341.711L983.35 340.218Z" fill="#453C9E"/>
<path opacity="0.32" d="M985.234 334.528L970.849 326.16L968.312 327.652L982.697 336.02L985.234 334.528Z" fill="#453C9E"/>
<path opacity="0.32" d="M987.072 328.791L976.651 322.746L974.115 324.238L984.52 330.298L987.072 328.791Z" fill="#453C9E"/>
<path opacity="0.32" d="M997.599 328.127L982.454 319.328L979.917 320.82L995.062 329.619L997.599 328.127Z" fill="#453C9E"/>
<path opacity="0.32" d="M998.677 321.963L988.257 315.918L985.72 317.41L996.14 323.47L998.677 321.963Z" fill="#453C9E"/>
<path opacity="0.32" d="M1007.27 320.176L994.074 312.5L991.523 313.992L1004.74 321.668L1007.27 320.176Z" fill="#453C9E"/>
<path opacity="0.32" d="M1007.08 313.27L999.877 309.086L997.325 310.578L1004.53 314.762L1007.08 313.27Z" fill="#453C9E"/>
<path opacity="0.32" d="M1019.62 313.778L1005.68 305.672L1003.14 307.164L1017.09 315.27L1019.62 313.778Z" fill="#453C9E"/>
<path opacity="0.32" d="M1024.7 309.929L1011.48 302.254L1008.95 303.746L1022.15 311.422L1024.7 309.929Z" fill="#453C9E"/>
<path opacity="0.32" d="M1086.95 346.094L1092.55 349.355L1090.01 350.862L1084.39 347.586L1086.95 346.094Z" fill="#453C9E"/>
<path opacity="0.32" d="M1070.25 336.406L1082.91 343.759L1080.37 345.251L1067.72 337.898L1070.25 336.406Z" fill="#453C9E"/>
<path opacity="0.32" d="M1086.05 310.211L1107.39 322.609L1104.84 324.101L1083.51 311.703L1086.05 310.211Z" fill="#453C9E"/>
<path opacity="0.32" d="M1071.44 301.719L1079.84 306.595L1077.3 308.087L1068.9 303.211L1071.44 301.719Z" fill="#453C9E"/>
</g>
<path opacity="0.3" d="M1060.13 382.194C1063.01 373.838 1043.55 359.338 1016.65 349.806C989.748 340.274 965.601 339.321 962.714 347.676C959.826 356.031 979.292 370.532 1006.19 380.064C1033.09 389.595 1057.24 390.549 1060.13 382.194Z" fill="#0F054C"/>
<path d="M1030.82 317.304L1030.49 308.706L1028.51 303.676L1027.26 307.844L1030.82 317.304Z" fill="#DD821F"/>
<path d="M941.745 318.949L941.41 310.52C941.41 310.52 948.459 317.641 948.459 317.811C948.474 317.98 941.745 318.949 941.745 318.949Z" fill="#FFD85A"/>
<path d="M986.89 343.958C1011.48 343.358 1031 330.699 1030.47 308.718C1029.95 286.738 1009.6 269.403 985.006 269.987C960.413 270.587 940.894 288.891 941.426 310.872C941.942 332.852 962.297 344.543 986.89 343.958Z" fill="#FFD85A"/>
<path d="M987.215 358.213C1011.81 357.618 1031.32 339.311 1030.8 317.324C1030.28 295.336 1009.93 277.995 985.335 278.59C960.746 279.185 941.232 297.492 941.751 319.48C942.27 341.467 962.625 358.809 987.215 358.213Z" fill="#FFD85A"/>
<path d="M1017.38 289.707C1025.46 296.706 1030.58 306.427 1030.82 317.302C1031.34 339.283 1011.83 357.587 987.239 358.187C975.072 358.479 963.953 354.388 955.75 347.512L1017.38 289.707Z" fill="#DD821F"/>
<path d="M987.176 356.42C1010.67 355.852 1029.31 338.365 1028.81 317.363C1028.32 296.361 1008.87 279.796 985.38 280.365C961.889 280.934 943.247 298.42 943.743 319.422C944.239 340.425 963.685 356.989 987.176 356.42Z" fill="#F9BF30"/>
<path d="M986.997 348.92C1005.86 348.463 1020.83 334.427 1020.43 317.569C1020.03 300.712 1004.42 287.416 985.556 287.872C966.694 288.329 951.726 302.365 952.124 319.223C952.522 336.081 968.135 349.377 986.997 348.92Z" fill="#F2B42A"/>
<path d="M952.135 319.21C952.119 318.518 952.135 317.826 952.18 317.134C953.745 332.993 968.844 345.206 986.92 344.76C1005 344.329 1019.49 331.408 1020.31 315.473C1020.37 316.165 1020.43 316.842 1020.44 317.549C1020.84 334.408 1005.88 348.451 987.011 348.913C968.145 349.374 952.545 336.069 952.135 319.21Z" fill="#FFD85A"/>
<path d="M979.735 320.966L986.738 314.398C993.482 315.952 1006.06 318.844 1016.1 321.243C1013.61 328.857 1007.52 335.133 999.558 338.456L979.735 320.966Z" fill="#FFD85A"/>
<path d="M990.763 340.777C989.654 340.915 988.515 341.007 987.376 341.038C979.127 341.238 971.578 338.5 965.973 333.901L977.411 323.18L990.763 340.777Z" fill="#FFD85A"/>
<path d="M994.257 307.335L1007.46 294.953C1011.89 298.875 1015.86 303.213 1016.94 308.997L994.257 307.335Z" fill="#FFD85A"/>
<path d="M987.36 291.505C968.494 291.966 953.532 305.995 953.927 322.868C954.003 326.283 954.717 329.56 955.947 332.59C953.623 328.59 952.241 324.053 952.135 319.223C951.74 302.364 966.702 288.321 985.568 287.859C1000.61 287.49 1013.58 295.873 1018.41 307.84C1012.61 297.858 1000.82 291.182 987.36 291.505Z" fill="#DD821F"/>
<path d="M1030.48 308.701C1030.56 311.978 1030.86 314.347 1030.11 317.408C1029.12 314.177 1026.99 304.533 1026.99 304.533L1023.6 296.873L1020.78 294.519L1015.99 290.997L1015.6 279.938C1024.5 286.982 1030.21 297.211 1030.48 308.701Z" fill="#DD821F"/>
<path d="M944.297 307.577L944.114 305.316C944.099 304.993 943.856 304.731 943.552 304.747H943.385C943.081 304.747 942.854 305.024 942.854 305.347L943.036 307.608C943.051 307.931 943.294 308.192 943.598 308.177H943.765C944.069 308.177 944.312 307.9 944.297 307.577Z" fill="#DD821F"/>
<path d="M948.216 298.906L947.988 294.829C947.973 294.46 947.699 294.168 947.35 294.168L946.955 294.183C946.605 294.199 946.347 294.491 946.347 294.876L946.575 298.952C946.59 299.321 946.864 299.613 947.213 299.613L947.608 299.598C947.957 299.582 948.231 299.275 948.216 298.906Z" fill="#DD821F"/>
<path d="M953.638 291.321L953.411 287.368C953.395 286.952 953.076 286.614 952.697 286.629L952.013 286.645C951.618 286.66 951.314 286.999 951.33 287.414L951.557 291.367C951.573 291.782 951.892 292.121 952.271 292.105L952.955 292.09C953.335 292.09 953.654 291.752 953.638 291.321Z" fill="#DD821F"/>
<path d="M961.765 285.214L961.522 280.43C961.507 280.015 961.188 279.677 960.808 279.692L960.125 279.707C959.73 279.723 959.426 280.061 959.441 280.476L959.684 285.26C959.699 285.676 960.018 286.014 960.398 285.999L961.082 285.983C961.461 285.983 961.765 285.629 961.765 285.214Z" fill="#DD821F"/>
<path d="M969.922 281.199L969.664 275.692C969.649 275.277 969.33 274.938 968.95 274.954L968.266 274.969C967.872 274.984 967.568 275.323 967.583 275.738L967.841 281.245C967.856 281.66 968.175 281.998 968.555 281.983L969.239 281.968C969.634 281.968 969.937 281.614 969.922 281.199Z" fill="#DD821F"/>
<path d="M978.14 278.749L977.882 273.458C977.867 273.042 977.548 272.704 977.168 272.719L976.484 272.735C976.089 272.75 975.785 273.088 975.801 273.504L976.059 278.795C976.074 279.21 976.393 279.549 976.773 279.533L977.456 279.518C977.836 279.503 978.14 279.164 978.14 278.749Z" fill="#DD821F"/>
<path d="M986.373 277.908L986.115 272.524C986.1 272.109 985.781 271.77 985.401 271.786L984.717 271.801C984.322 271.816 984.019 272.155 984.034 272.57L984.292 277.954C984.307 278.369 984.626 278.708 985.006 278.692L985.69 278.677C986.085 278.677 986.388 278.338 986.373 277.908Z" fill="#DD821F"/>
<path d="M994.652 278.093L994.393 273.047C994.378 272.632 994.059 272.294 993.679 272.309L992.996 272.324C992.601 272.34 992.297 272.678 992.312 273.094L992.571 278.139C992.586 278.554 992.905 278.893 993.285 278.877L993.968 278.862C994.348 278.862 994.652 278.508 994.652 278.093Z" fill="#DD821F"/>
<path d="M1002.96 279.923L1002.72 275.047C1002.7 274.632 1002.38 274.294 1002 274.309L1001.32 274.324C1000.93 274.34 1000.62 274.678 1000.64 275.094L1000.88 279.97C1000.89 280.385 1001.21 280.723 1001.59 280.708L1002.28 280.693C1002.66 280.693 1002.96 280.339 1002.96 279.923Z" fill="#DD821F"/>
<path d="M1011.32 284.026L1011.06 278.735C1011.04 278.32 1010.72 277.981 1010.34 277.997L1009.66 278.012C1009.26 278.027 1008.96 278.366 1008.98 278.781L1009.23 284.072C1009.25 284.488 1009.57 284.826 1009.95 284.811L1010.63 284.795C1011.01 284.795 1011.33 284.457 1011.32 284.026Z" fill="#DD821F"/>
<path opacity="0.5" d="M1207.52 488.797C1210.06 481.46 1192.97 468.729 1169.36 460.362C1145.74 451.995 1124.54 451.159 1122.01 458.496C1119.47 465.833 1136.56 478.564 1160.17 486.932C1183.79 495.299 1204.99 496.134 1207.52 488.797Z" fill="#0F054C"/>
<path d="M1181.79 431.831L1181.5 424.293L1179.77 419.879L1178.66 423.524L1181.79 431.831Z" fill="#DD821F"/>
<path d="M1103.59 433.278L1103.31 425.879C1103.31 425.879 1109.49 432.124 1109.49 432.278C1109.5 432.416 1103.59 433.278 1103.59 433.278Z" fill="#FFD85A"/>
<path d="M1143.24 455.229C1164.83 454.706 1181.96 443.585 1181.5 424.296C1181.05 404.992 1163.17 389.779 1141.59 390.302C1120 390.825 1102.87 406.899 1103.32 426.203C1103.78 445.492 1121.64 455.752 1143.24 455.229Z" fill="#FFD85A"/>
<path d="M1143.51 467.759C1165.09 467.237 1182.22 451.164 1181.77 431.861C1181.31 412.557 1163.44 397.332 1141.86 397.855C1120.27 398.377 1103.14 414.45 1103.59 433.753C1104.05 453.057 1121.92 468.282 1143.51 467.759Z" fill="#FFD85A"/>
<path d="M1169.99 407.605C1177.08 413.743 1181.58 422.295 1181.79 431.832C1182.25 451.136 1165.11 467.21 1143.53 467.733C1132.85 467.995 1123.08 464.395 1115.88 458.366L1169.99 407.605Z" fill="#DD821F"/>
<path d="M1143.47 466.2C1164.09 465.7 1180.46 450.349 1180.02 431.912C1179.59 413.474 1162.52 398.933 1141.89 399.432C1121.27 399.931 1104.9 415.282 1105.34 433.72C1105.77 452.157 1122.85 466.699 1143.47 466.2Z" fill="#F9BF30"/>
<path d="M1143.32 459.606C1159.87 459.205 1173.01 446.88 1172.66 432.078C1172.31 417.275 1158.61 405.6 1142.05 406.001C1125.5 406.402 1112.36 418.726 1112.71 433.529C1113.06 448.332 1126.76 460.007 1143.32 459.606Z" fill="#F2B42A"/>
<path d="M1112.72 433.507C1112.71 432.892 1112.72 432.292 1112.75 431.676C1114.14 445.597 1127.38 456.318 1143.26 455.933C1159.13 455.549 1171.86 444.213 1172.57 430.23C1172.63 430.83 1172.68 431.446 1172.69 432.046C1173.04 446.843 1159.9 459.179 1143.35 459.579C1126.77 459.994 1113.07 448.319 1112.72 433.507Z" fill="#FFD85A"/>
<path d="M1136.95 435.046L1143.1 429.277C1149.03 430.631 1160.06 433.184 1168.88 435.276C1166.69 441.952 1161.35 447.474 1154.36 450.397L1136.95 435.046Z" fill="#FFD85A"/>
<path d="M1146.63 452.443C1145.66 452.566 1144.65 452.643 1143.65 452.674C1136.41 452.843 1129.78 450.443 1124.86 446.398L1134.9 436.984L1146.63 452.443Z" fill="#FFD85A"/>
<path d="M1149.7 423.078L1161.29 412.219C1165.18 415.664 1168.67 419.464 1169.61 424.54L1149.7 423.078Z" fill="#FFD85A"/>
<path d="M1143.64 409.186C1127.08 409.586 1113.94 421.907 1114.29 436.72C1114.36 439.719 1114.99 442.58 1116.07 445.257C1114.02 441.734 1112.82 437.75 1112.72 433.52C1112.37 418.723 1125.51 406.387 1142.07 405.987C1155.27 405.664 1166.66 413.032 1170.9 423.522C1165.81 414.754 1155.45 408.894 1143.64 409.186Z" fill="#DD821F"/>
<path d="M1181.5 424.296C1181.57 427.172 1181.84 429.249 1181.17 431.941C1180.3 429.11 1178.44 420.635 1178.44 420.635L1175.46 413.898L1172.98 411.837L1168.79 408.745L1168.44 399.039C1176.25 405.223 1181.26 414.19 1181.5 424.296Z" fill="#DD821F"/>
<path d="M1105.84 423.297L1105.68 421.312C1105.68 421.02 1105.45 420.805 1105.19 420.805H1105.04C1104.78 420.805 1104.57 421.051 1104.57 421.328L1104.73 423.312C1104.73 423.604 1104.96 423.82 1105.22 423.82H1105.37C1105.63 423.82 1105.84 423.589 1105.84 423.297Z" fill="#DD821F"/>
<path d="M1109.28 415.681L1109.08 412.113C1109.06 411.79 1108.82 411.528 1108.52 411.544L1108.17 411.559C1107.86 411.559 1107.64 411.836 1107.64 412.159L1107.83 415.727C1107.85 416.05 1108.09 416.312 1108.39 416.297L1108.74 416.281C1109.05 416.281 1109.28 416.004 1109.28 415.681Z" fill="#DD821F"/>
<path d="M1114.03 409.041L1113.83 405.58C1113.82 405.211 1113.54 404.919 1113.19 404.934L1112.6 404.95C1112.27 404.965 1111.99 405.257 1111.99 405.626L1112.19 409.087C1112.21 409.456 1112.48 409.749 1112.83 409.733L1113.42 409.718C1113.77 409.703 1114.05 409.41 1114.03 409.041Z" fill="#DD821F"/>
<path d="M1121.17 403.67L1120.96 399.471C1120.94 399.102 1120.67 398.809 1120.32 398.825L1119.73 398.84C1119.39 398.856 1119.12 399.148 1119.12 399.517L1119.33 403.716C1119.35 404.085 1119.62 404.378 1119.97 404.362L1120.56 404.347C1120.91 404.332 1121.17 404.039 1121.17 403.67Z" fill="#DD821F"/>
<path d="M1128.34 400.148L1128.11 395.303C1128.1 394.934 1127.82 394.641 1127.47 394.657L1126.88 394.672C1126.55 394.688 1126.27 394.98 1126.27 395.349L1126.5 400.194C1126.52 400.563 1126.79 400.856 1127.14 400.84L1127.73 400.825C1128.08 400.81 1128.34 400.517 1128.34 400.148Z" fill="#DD821F"/>
<path d="M1135.54 397.995L1135.31 393.35C1135.3 392.981 1135.02 392.688 1134.67 392.704L1134.08 392.719C1133.75 392.734 1133.47 393.027 1133.47 393.396L1133.7 398.041C1133.72 398.41 1133.99 398.702 1134.34 398.687L1134.93 398.672C1135.28 398.672 1135.55 398.364 1135.54 397.995Z" fill="#DD821F"/>
<path d="M1142.79 397.256L1142.56 392.533C1142.54 392.164 1142.27 391.872 1141.92 391.887L1141.33 391.903C1140.99 391.918 1140.72 392.21 1140.72 392.579L1140.95 397.302C1140.96 397.671 1141.24 397.963 1141.59 397.948L1142.18 397.932C1142.51 397.932 1142.79 397.625 1142.79 397.256Z" fill="#DD821F"/>
<path d="M1150.03 397.405L1149.8 392.975C1149.79 392.606 1149.51 392.313 1149.17 392.329L1148.57 392.344C1148.24 392.359 1147.96 392.652 1147.96 393.021L1148.19 397.451C1148.21 397.82 1148.48 398.112 1148.83 398.097L1149.42 398.082C1149.77 398.082 1150.05 397.774 1150.03 397.405Z" fill="#DD821F"/>
<path d="M1157.34 399.024L1157.12 394.733C1157.11 394.363 1156.84 394.071 1156.49 394.087L1155.89 394.102C1155.56 394.117 1155.29 394.41 1155.29 394.779L1155.5 399.07C1155.51 399.439 1155.79 399.732 1156.14 399.716L1156.73 399.701C1157.06 399.701 1157.34 399.393 1157.34 399.024Z" fill="#DD821F"/>
<path d="M1164.67 402.62L1164.45 397.975C1164.43 397.606 1164.16 397.313 1163.81 397.329L1163.22 397.344C1162.88 397.359 1162.61 397.652 1162.61 398.021L1162.84 402.666C1162.85 403.035 1163.12 403.328 1163.47 403.312L1164.07 403.297C1164.42 403.297 1164.67 402.989 1164.67 402.62Z" fill="#DD821F"/>
<defs>
<radialGradient id="paint0_radial_203_865" cx="0" cy="0" r="1" gradientUnits="userSpaceOnUse" gradientTransform="translate(1519.48 -0.335464) rotate(180) scale(1097.62 1111.72)">
<stop stop-color="#FF2C9C"/>
<stop offset="0.0301" stop-color="#F62F9F"/>
<stop offset="0.2023" stop-color="#C63EB0"/>
<stop offset="0.3737" stop-color="#9E4BBE"/>
<stop offset="0.5413" stop-color="#7F54C9"/>
<stop offset="0.7039" stop-color="#695BD1"/>
<stop offset="0.8594" stop-color="#5C60D5"/>
<stop offset="1" stop-color="#5761D7"/>
</radialGradient>
<linearGradient id="paint1_linear_203_865" x1="1023.52" y1="465.473" x2="861.781" y2="468.557" gradientUnits="userSpaceOnUse">
<stop stop-color="#5761D7"/>
<stop offset="0.0398" stop-color="#5C66D9"/>
<stop offset="0.0867" stop-color="#6A73DF"/>
<stop offset="0.1372" stop-color="#8289E8"/>
<stop offset="0.1899" stop-color="#A3A7F5"/>
<stop offset="0.2237" stop-color="#BCBEFF"/>
</linearGradient>
<linearGradient id="paint2_linear_203_865" x1="975.49" y1="380.729" x2="912.271" y2="477.764" gradientUnits="userSpaceOnUse">
<stop stop-color="#C0BFF6"/>
<stop offset="0.2938" stop-color="#C5C4F7"/>
<stop offset="0.6399" stop-color="#D3D2F9"/>
<stop offset="1" stop-color="#E9E9FD"/>
</linearGradient>
<linearGradient id="paint3_linear_203_865" x1="1123.46" y1="204.558" x2="951.586" y2="493.747" gradientUnits="userSpaceOnUse">
<stop stop-color="#C0BFF6"/>
<stop offset="0.1172" stop-color="#D0CFF9"/>
<stop offset="0.2627" stop-color="#E9E9FD"/>
<stop offset="0.5143" stop-color="#C0BFF6"/>
<stop offset="0.6217" stop-color="#D0CFF9"/>
<stop offset="0.755" stop-color="#E9E9FD"/>
<stop offset="1" stop-color="#C0BFF6"/>
</linearGradient>
</defs>
</svg>
